<?xml version="1.0" standalone="no"?><!DOCTYPE svg PUBLIC "-//W3C//DTD SVG 1.1//EN" "http://www.w3.org/Graphics/SVG/1.1/DTD/svg11.dtd"><svg t="1590916183827" class="icon" viewBox="0 0 1024 1024" version="1.1" xmlns="http://www.w3.org/2000/svg" p-id="4247" xmlns:xlink="http://www.w3.org/1999/xlink" width="200" height="200"><defs><style type="text/css"></style></defs><path d="M134.133536 580.716702l56.753068 0 0 291.980301c0 57.465826 40.272055 77.843899 74.75082 77.843899 2.224633 0 3.991932-0.094872 4.770371-0.165418l156.357985 0L426.76578 640.472841c0-5.273924 4.105049-9.084626 4.747262-9.441005l161.032268-0.189745c1.667562 1.01562 4.598872 7.502206 4.68523 10.366618 0.271237 8.875421 0.057167 219.418841-0.00973 283.723983l-0.014596 25.442792 155.259656 0c27.429028 0 50.671513-12.923304 67.225505-37.421022 10.770433-15.902049 14.924135-31.335818 15.645407-34.271993l0.546124-2.19909 1.088598-297.688449 54.861704 0c19.418404 0 35.344779-8.640673 44.8466-24.301892 6.922025-11.40778 10.286341-26.291777 10.286341-45.479082l0-10.418919-7.397603-7.412199c-38.094858-38.232301-405.387915-406.826811-406.880329-408.294898-5.939246-5.85897-14.638302-8.827985-25.832011-8.827985-10.144033 0-18.25926 2.959284-24.198506 8.851095L77.03382 496.796114l0 10.294856c0 18.972018 6.357657 37.241008 17.89315 51.456033C106.205821 572.428759 120.853853 580.716702 134.133536 580.716702L134.133536 580.716702z" p-id="4248"></path></svg>