<?xml version="1.0" standalone="no"?><!DOCTYPE svg PUBLIC "-//W3C//DTD SVG 1.1//EN" "http://www.w3.org/Graphics/SVG/1.1/DTD/svg11.dtd"><svg t="1590918993569" class="icon" viewBox="0 0 1024 1024" version="1.1" xmlns="http://www.w3.org/2000/svg" p-id="2849" xmlns:xlink="http://www.w3.org/1999/xlink" width="200" height="200"><defs><style type="text/css"></style></defs><path d="M507.922002 0c1.305999 0 2.609999 0 4.045998 0 1.434999 0 2.738999 0 4.109998 0L507.922002 0zM903.316809 151.046926C892.095814 94.607954 841.854839 72.097965 787.699865 49.521976 734.328891 27.272987 606.443954 0.718 511.968 0c-94.412954 0.718-222.360891 27.272987-275.732865 49.587976C182.079161 72.162965 131.840186 94.672954 120.552191 151.111926L94.127204 463.774774l0 430.88979 70.009966 0 0 67.529967c0 82.40596 115.812943 82.40596 115.812943 0L279.950113 894.599563l464.101773 0 0 67.595967c0 82.40596 115.877943 82.40596 115.877943 0L859.92983 894.599563l69.943966 0L929.873796 463.774774 903.316809 151.046926zM340.042084 78.817962l343.784832 0c33.862983 0 33.862983 50.892975 0 50.892975L340.042084 129.710937C306.113101 129.710937 306.113101 78.817962 340.042084 78.817962zM167.725168 453.464779l31.645985-226.862889c4.240998-27.599987 13.635993-45.672978 49.391976-45.672978l526.346743 0c35.688983 0 45.084978 18.072991 49.391976 45.672978l31.643985 226.862889c2.871999 21.727989-3.391998 43.323979-33.404984 43.323979L201.066152 496.788757C171.053166 496.724757 164.72417 475.192768 167.725168 453.464779zM295.348106 721.890648c0 12.983994-10.504995 23.554988-23.487989 23.554988l-95.064954 0c-12.982994 0-23.487989-10.569995-23.487989-23.554988l0-40.25598c0-12.984994 10.504995-23.554988 23.487989-23.554988l95.064954 0c12.982994 0 23.487989 10.568995 23.487989 23.554988L295.348106 721.890648zM870.628825 721.890648c0 12.983994-10.568995 23.554988-23.488989 23.554988l-95.128954 0c-12.983994 0-23.488989-10.569995-23.488989-23.554988l0-40.25598c0-12.984994 10.504995-23.554988 23.488989-23.554988l95.128954 0c12.983994 0 23.488989 10.568995 23.488989 23.554988L870.628825 721.890648 870.628825 721.890648z" p-id="2850"></path></svg>