<?xml version="1.0" standalone="no"?><!DOCTYPE svg PUBLIC "-//W3C//DTD SVG 1.1//EN" "http://www.w3.org/Graphics/SVG/1.1/DTD/svg11.dtd"><svg t="1590916371902" class="icon" viewBox="0 0 1024 1024" version="1.1" xmlns="http://www.w3.org/2000/svg" p-id="2685" xmlns:xlink="http://www.w3.org/1999/xlink" width="200" height="200"><defs><style type="text/css"></style></defs><path d="M108.8 382.976c-7.424 0-14.72-3.584-19.2-10.24-7.04-10.624-4.224-24.832 6.4-32l281.472-187.648c39.936-26.624 86.528-40.704 134.528-40.704 48.128 0 94.592 14.08 134.528 40.704L928 340.736c10.624 7.04 13.44 21.376 6.4 32s-21.376 13.44-32 6.4L621.056 191.488c-66.176-44.16-151.808-44.16-217.984 0L121.6 379.136c-3.968 2.56-8.448 3.84-12.8 3.84z" p-id="2686"></path><path d="M805.376 852.736H218.624c-12.672 0-23.04-10.368-23.04-23.04V289.28c0-12.672 10.368-23.04 23.04-23.04s23.04 10.368 23.04 23.04v517.376h540.672V289.28c0-12.672 10.368-23.04 23.04-23.04s23.04 10.368 23.04 23.04v540.416c0 12.672-10.368 23.04-23.04 23.04z" p-id="2687"></path><path d="M512.512 595.2c-72.064 0-130.688-58.624-130.688-130.688s58.624-130.688 130.688-130.688 130.688 58.624 130.688 130.688S584.576 595.2 512.512 595.2z m0-215.296c-46.592 0-84.608 38.016-84.608 84.608S465.92 549.12 512.512 549.12c46.592 0 84.608-38.016 84.608-84.608s-38.016-84.608-84.608-84.608z" p-id="2688"></path><path d="M769.536 852.736c-12.672 0-23.04-10.368-23.04-23.04 0-129.152-105.344-234.112-234.752-234.112s-234.752 104.96-234.752 234.112c0 12.672-10.368 23.04-23.04 23.04s-23.04-10.368-23.04-23.04c0-74.88 29.184-145.28 82.304-198.144 52.992-52.864 123.52-82.048 198.528-82.048 154.88 0 280.832 125.696 280.832 280.192 0 12.672-10.368 23.04-23.04 23.04z" p-id="2689"></path></svg>