<?xml version="1.0" standalone="no"?><!DOCTYPE svg PUBLIC "-//W3C//DTD SVG 1.1//EN" "http://www.w3.org/Graphics/SVG/1.1/DTD/svg11.dtd"><svg t="1590916332545" class="icon" viewBox="0 0 1316 1024" version="1.1" xmlns="http://www.w3.org/2000/svg" p-id="1847" xmlns:xlink="http://www.w3.org/1999/xlink" width="257.03125" height="200"><defs><style type="text/css"></style></defs><path d="M807.716571 689.883429a441.782857 441.782857 0 0 0 39.570286-85.430858h-81.92v-53.248h87.771429v-73.142857c-23.990857 3.510857-48.566857 6.436571-74.313143 8.777143l-11.117714-49.737143c73.728-6.436571 138.678857-18.724571 196.022857-36.864l19.309714 51.492572c-23.990857 6.436571-49.152 12.288-74.898286 17.554285v81.92h76.653715v53.248h-76.653715v25.161143c27.501714 24.576 55.003429 50.907429 82.505143 80.164572l-30.427428 46.811428c-19.894857-29.257143-37.449143-52.662857-52.077715-70.802285v251.026285h-38.619428a36.278857 36.278857 0 0 1-29.257143 14.409143H36.571429c-20.48 0-36.571429-16.091429-36.571429-36.571428C0 729.088 116.150857 592.457143 279.844571 538.331429a290.596571 290.596571 0 0 1-133.705142-244.809143A292.205714 292.205714 0 0 1 438.418286 1.243429 292.205714 292.205714 0 0 1 730.697143 293.522286c0 103.058286-53.321143 192.950857-133.705143 244.809143 87.186286 28.818286 160.914286 81.042286 210.651429 151.552z m25.088 40.96c7.753143 14.628571 14.555429 29.915429 20.333715 45.787428V686.957714a584.192 584.192 0 0 1-20.333715 43.885715z m415.305143-313.051429v446.464h45.056v53.248h-331.776v-53.248h50.907429V417.792h235.812571z m-181.979428 446.464h126.390857v-98.304h-126.390857v98.304z m0-150.381714h126.390857V616.155429h-126.390857V713.874286z m0-149.796572h126.390857V469.869714h-126.390857v94.208z" p-id="1848"></path></svg>