<?xml version="1.0" standalone="no"?><!DOCTYPE svg PUBLIC "-//W3C//DTD SVG 1.1//EN" "http://www.w3.org/Graphics/SVG/1.1/DTD/svg11.dtd"><svg t="1590919032217" class="icon" viewBox="0 0 1024 1024" version="1.1" xmlns="http://www.w3.org/2000/svg" p-id="3650" xmlns:xlink="http://www.w3.org/1999/xlink" width="200" height="200"><defs><style type="text/css"></style></defs><path d="M829.2352 706.56h72.192v57.4464h-72.192V706.56z m0-83.1488h72.192v53.9648h-72.192v-53.9648z m0 0" p-id="3651"></path><path d="M973.4144 511.6928H632.832c-13.2096 0-25.9072 5.2224-35.2256 14.5408-9.3184 9.3184-14.6432 21.9136-14.6432 35.1232v339.456c0 13.2096 5.3248 25.8048 14.6432 35.1232 9.3184 9.3184 22.016 14.5408 35.2256 14.5408h340.5824c13.2096 0 25.8048-5.2224 35.2256-14.5408 9.3184-9.3184 14.5408-21.9136 14.6432-35.1232V561.3568c0-13.2096-5.2224-25.8048-14.6432-35.1232-9.4208-9.3184-22.016-14.5408-35.2256-14.5408zM733.3888 742.1952v150.2208h-30.9248V753.5616c-12.4928 30.8224-27.7504 60.2112-43.1104 79.6672-3.072-9.0112-10.752-22.1184-15.9744-30.1056 20.48-23.552 41.984-64.4096 54.8864-101.0688h-50.3808v-30.1056h54.4768v-46.3872c-14.5408 2.7648-28.8768 5.2224-42.7008 6.9632-0.7168-7.2704-5.2224-18.3296-8.704-25.2928 38.912-6.2464 83.3536-16.2816 110.3872-27.648l18.7392 26.0096c-13.9264 5.2224-29.9008 10.0352-46.8992 13.5168v52.9408h45.8752v30.1056h-45.8752v5.5296c10.1376 10.3424 40.6528 48.4352 47.616 57.7536l-19.1488 25.2928c-5.3248-11.4688-17.5104-31.9488-28.2624-48.5376z m232.0384 139.8784H764.0064v-29.7984h33.6896V593.7152h136.4992v258.56h31.232v29.7984zM157.5936 301.9776c0 124.928 101.0688 229.0688 228.9664 229.0688 127.8976 0 228.9664-101.1712 228.9664-229.0688C615.5264 174.08 511.3856 72.9088 386.56 72.9088c-124.928 0-228.9664 104.1408-228.9664 229.0688z m0 0" p-id="3652"></path><path d="M829.2352 793.088h72.192v59.1872h-72.192v-59.1872zM291.4304 950.4768h187.392c32.256 0 63.3856-0.1024 92.4672-0.8192-6.656-9.216-10.24-20.3776-10.24-31.744v-339.968c-25.8048-7.4752-52.4288-11.264-79.2576-11.264h-187.392C130.8672 566.6816 0 700.6208 0 864.1536v17.92c0 68.4032 130.8672 68.4032 291.4304 68.4032z m0 0" p-id="3653"></path></svg>