<?xml version="1.0" standalone="no"?><!DOCTYPE svg PUBLIC "-//W3C//DTD SVG 1.1//EN" "http://www.w3.org/Graphics/SVG/1.1/DTD/svg11.dtd"><svg t="1590916198645" class="icon" viewBox="0 0 1373 1024" version="1.1" xmlns="http://www.w3.org/2000/svg" p-id="5009" xmlns:xlink="http://www.w3.org/1999/xlink" width="268.1640625" height="200"><defs><style type="text/css"></style></defs><path d="M538.79568 10.238799a1059.601254 1059.601254 0 0 1 293.42502 0c68.400414 12.823033 136.833541 23.094545 201.079554 39.614014a139.941163 139.941163 0 0 1 101.210369 88.976149q41.805705 109.944425 87.569541 218.155123a50.049084 50.049084 0 0 0 31.501482 28.851825 100.883251 100.883251 0 0 1 116.257806 75.466167 77.821418 77.821418 0 0 1 0 39.712149l-78.21396 19.627092a595.813079 595.813079 0 0 1 9.584563 76.807352v354.694258a97.055968 97.055968 0 0 1-23.323527 58.881275 684.167703 684.167703 0 0 1-218.842072 3.892706c-50.572473-30.127586-19.136414-80.798194-35.525036-121.622544H358.65169c-13.084728 43.539432-20.510311 116.486789-35.525035 121.622544a698.004803 698.004803 0 0 1-224.108675 0 110.009849 110.009849 0 0 1-24.599288-67.877025c-4.088977-51.193997-4.088977-99.771049-4.088978-149.689286 0-92.738008 0-185.54144 4.088978-278.933684l-72.652951-17.926077a69.447193 69.447193 0 0 1 0-31.337923c20.510311-51.193997 47.890104-90.840723 118.351362-85.05073a49.591118 49.591118 0 0 0 28.688266-26.889116A1639.483677 1639.483677 0 0 0 217.238495 182.597376 229.277142 229.277142 0 0 1 422.276179 24.239458c37.585881-6.542364 76.611081-10.893036 114.229674-16.617604l2.028132 2.51881zM235.949656 405.626561a2309.454451 2309.454451 0 0 0 894.700973 0c-25.089965-70.886513-50.408914-134.347442-68.13872-198.397185a112.201541 112.201541 0 0 0-113.575437-85.05073c-141.576754-5.75728-283.873169-10.206088-425.253653-11.547273a640.759119 640.759119 0 0 0-136.800828 19.856075 78.148537 78.148537 0 0 0-49.918237 31.959447C298.625502 239.908484 269.937236 319.888882 236.113215 405.659273z m58.161615 301.930093a358.259846 358.259846 0 0 0 73.209052-3.794571 68.106008 68.106008 0 0 0 44.455362-31.403347 47.137732 47.137732 0 0 0-25.973184-39.0252 1664.377372 1664.377372 0 0 0-171.050104-63.984319c-28.688266-8.963039-61.530932-7.065753-68.367703 30.683686-13.706252 55.610093 0 86.555474 44.455363 95.387666 34.870799 6.346093 68.367703 7.687278 106.705955 10.860324z m788.616542 0a1021.099443 1021.099443 0 0 0 107.458327-12.823033c51.226709-10.827612 40.333673-49.852813 38.927065-83.77497s-20.444887-49.918236-48.446205-42.263671a1549.10092 1549.10092 0 0 0-205.201243 72.947358c-30.258433 13.444558-19.136414 50.572473 15.080149 57.703649a829.702588 829.702588 0 0 0 92.312754 7.687278z m0 0" p-id="5010"></path></svg>