<?xml version="1.0" standalone="no"?><!DOCTYPE svg PUBLIC "-//W3C//DTD SVG 1.1//EN" "http://www.w3.org/Graphics/SVG/1.1/DTD/svg11.dtd"><svg t="1590918962879" class="icon" viewBox="0 0 1152 1024" version="1.1" xmlns="http://www.w3.org/2000/svg" p-id="2086" xmlns:xlink="http://www.w3.org/1999/xlink" width="225" height="200"><defs><style type="text/css"></style></defs><path d="M18.854585 387.601655c20.196378-15.328107 48.954945-11.375626 64.267106 8.826447l47.732752 62.925313c11.884779-116.838514 63.100725-225.152427 147.274892-309.34368 199.646968-199.65608 524.463413-199.65608 724.084182 0 199.646968 199.646968 199.646968 524.463413 0 724.084183-99.810954 99.810954-230.920543 149.734087-362.025575 149.734086-131.105032 0-262.206647-49.910603-362.025575-149.734086-17.909179-17.898928-17.909179-46.944534 0-64.850296 17.898928-17.909179 46.944534-17.909179 64.850296 0 163.871893 163.871893 430.498029 163.871893 594.367644 0 163.843417-163.871893 163.843417-430.498029 0-594.367644-163.871893-163.871893-430.498029-163.871893-594.367644 0-70.181019 70.181019-112.422443 160.844316-121.294452 258.483114l58.751858-60.631279c17.619862-18.177993 46.636992-18.632472 64.850296-0.989829 18.177993 17.619862 18.632472 46.677998 0.98869 64.850296L205.372939 621.967804c-8.643061 8.96541-20.556316 13.936196-32.920632 13.936196-0.926042 0-1.836138-0.002278-2.77471-0.007973a45.852191 45.852191 0 0 1-33.757828-18.042447L10.046363 451.95305c-15.309882-20.172458-11.375626-48.940138 8.840115-64.248881l-0.031893-0.102514z" p-id="2087"></path></svg>